HIERARCHY
ROOT Hips
{
	OFFSET 0.000000 0.000000 0.000000 
	CHANNELS 6 Xposition Yposition Zposition Zrotation Yrotation Xrotation
	JOINT LeftUpLeg
	{
		OFFSET 1.363060 -1.794630 0.839290 
		CHANNELS 3 Zrotation Yrotation Xrotation
		JOINT LeftLeg
		{
			OFFSET 2.448110 -6.726130 0.000000 
			CHANNELS 3 Zrotation Yrotation Xrotation
			JOINT LeftFoot
			{
				OFFSET 2.562200 -7.039590 0.000000 
				CHANNELS 3 Zrotation Yrotation Xrotation
				JOINT LeftToeBase
				{
					OFFSET 0.157640 -0.433110 2.322550 
					CHANNELS 3 Zrotation Yrotation Xrotation
					End Site
					{
						OFFSET 0.000000 0.000000 0.000000 
					}
				}
			}
		}
	}
	JOINT RightUpLeg
	{
		OFFSET -1.305520 -1.794630 0.839290 
		CHANNELS 3 Zrotation Yrotation Xrotation
		JOINT RightLeg
		{
			OFFSET -2.542530 -6.985550 0.000000 
			CHANNELS 3 Zrotation Yrotation Xrotation
			JOINT RightFoot
			{
				OFFSET -2.568260 -7.056230 0.000000 
				CHANNELS 3 Zrotation Yrotation Xrotation
				JOINT RightToeBase
				{
					OFFSET -0.164730 -0.452590 2.363150 
					CHANNELS 3 Zrotation Yrotation Xrotation
					End Site
					{
						OFFSET 0.000000 0.000000 0.000000 
					}
				}
			}
		}
	}
	JOINT Spine
	{
		OFFSET 0.028270 2.035590 -0.193380 
		CHANNELS 3 Zrotation Yrotation Xrotation
		JOINT Spine1
		{
			OFFSET 0.056720 2.048850 -0.042750 
			CHANNELS 3 Zrotation Yrotation Xrotation
			JOINT Neck1
			{
				OFFSET -0.054170 1.746240 0.172020 
				CHANNELS 3 Zrotation Yrotation Xrotation
				JOINT Head
				{
					OFFSET 0.104070 1.761360 -0.123970 
					CHANNELS 3 Zrotation Yrotation Xrotation
					End Site
					{
						OFFSET 0.000000 0.000000 0.000000 
					}
				}
			}
			JOINT LeftArm
			{
				OFFSET 3.362410 1.200890 -0.311210 
				CHANNELS 3 Zrotation Yrotation Xrotation
				JOINT LeftForeArm
				{
					OFFSET 4.983000 -0.000000 -0.000000 
					CHANNELS 3 Zrotation Yrotation Xrotation
					JOINT LeftHand
					{
						OFFSET 3.483560 -0.000000 -0.000000 
						CHANNELS 3 Zrotation Yrotation Xrotation
						JOINT LeftHandIndex1
						{
							OFFSET 0.715260 -0.000000 -0.000000 
							CHANNELS 3 Zrotation Yrotation Xrotation
							End Site
							{
								OFFSET 0.000000 0.000000 0.000000 
							}
						}
					}
				}
			}
			JOINT RightArm
			{
				OFFSET -3.136600 1.374050 -0.404650 
				CHANNELS 3 Zrotation Yrotation Xrotation
				JOINT RightForeArm
				{
					OFFSET -5.241900 -0.000000 -0.000000 
					CHANNELS 3 Zrotation Yrotation Xrotation
					JOINT RightHand
					{
						OFFSET -3.444170 -0.000000 -0.000000 
						CHANNELS 3 Zrotation Yrotation Xrotation
						JOINT RightHandIndex1
						{
							OFFSET -0.622530 -0.000000 -0.000000 
							CHANNELS 3 Zrotation Yrotation Xrotation
							End Site
							{
								OFFSET 0.000000 0.000000 0.000000 
							}
						}
					}
				}
			}
		}
	}
}
MOTION
Frames: 16
Frame Time: 0.041667
-0.717034 17.444302 -0.636385 173.057843 54.102968 171.887559 -35.450586 -7.532824 1.299987 0.180726 7.694634 25.019975 -0.756681 6.291455 -10.753651 0.035600 -1.218000 -3.348800 20.152137 14.240363 -23.798342 -5.738785 -15.851224 46.680100 1.929354 -12.687603 -9.994653 -0.220300 3.021800 -8.339300 0.367585 -0.468371 3.115595 0.247839 0.064894 -4.797997 5.436762 -8.003167 18.892809 3.689700 -4.109900 10.203700 -85.756973 -2.398884 22.119997 20.927354 -26.293794 -4.079228 0.841845 0.860547 -3.298164 -7.125000 0.000000 0.000000 84.674260 -5.264356 20.905435 -17.996648 23.003778 -3.163134 -1.370773 0.396635 12.887632 7.125000 0.000000 0.000000 
-0.618872 17.456126 -0.705545 173.180971 53.887185 172.043290 -35.366983 -7.291016 2.019044 0.073534 7.413841 24.315049 -0.765263 6.223461 -10.460070 0.025200 -1.025100 -2.818000 20.027215 14.495170 -24.084319 -5.191895 -15.404905 44.721472 2.042294 -13.175465 -10.103096 -0.249900 3.216400 -8.881800 0.366144 -0.516667 3.082814 0.217872 0.038599 -4.925167 5.487958 -8.089015 18.767500 3.691600 -4.140100 10.141000 -85.578301 -2.413373 22.733560 21.380417 -26.875219 -4.280052 0.844598 0.847810 -3.853234 -7.125000 0.000000 0.000000 84.793896 -5.418275 20.768102 -18.064240 23.088775 -3.191809 -1.382005 0.398127 12.809476 7.125000 0.000000 0.000000 
-0.519147 17.465496 -0.776267 173.072513 53.715761 171.982694 -35.425544 -6.931197 2.752401 -0.033464 7.127524 23.594334 -0.784290 6.207653 -10.185939 0.028200 -1.084400 -2.981100 19.773570 14.685301 -24.289798 -4.659138 -14.924328 42.732161 2.195935 -13.806505 -9.995543 -0.236300 3.128200 -8.635800 0.336015 -0.526409 3.115130 0.212355 0.032912 -4.952218 5.407926 -8.206607 18.576261 3.612100 -4.185800 10.051900 -85.409180 -2.549513 23.397134 21.774425 -27.377851 -4.460825 0.845623 0.846040 -4.369106 -7.125000 0.000000 0.000000 84.893151 -5.424928 20.598752 -18.100686 23.138735 -3.207910 -1.386437 0.404980 12.728764 7.125000 0.000000 0.000000 
-0.417192 17.470627 -0.850000 172.987231 53.605699 171.905925 -35.431272 -6.363203 3.488780 -0.145951 6.813209 22.806991 -0.797631 6.166310 -9.908427 0.034500 -1.199100 -3.296700 19.569657 14.854555 -24.414115 -4.143598 -14.418064 40.729955 2.400507 -14.642768 -9.783068 -0.292300 3.476600 -9.608700 0.332024 -0.528000 3.172277 0.219746 0.027319 -4.917992 5.431579 -8.270532 18.393439 3.612900 -4.213400 9.982900 -85.316426 -2.673118 24.025733 22.189934 -27.903960 -4.655986 0.845160 0.848650 -4.946949 -7.125000 0.000000 0.000000 84.884696 -5.441864 20.661772 -18.165123 23.218837 -3.231338 -1.389815 0.405453 12.510849 7.125000 0.000000 0.000000 
-0.315013 17.479216 -0.920387 173.150466 53.379644 172.057713 -35.226129 -5.827914 4.266152 -0.277094 6.441053 21.869221 -0.794144 6.010845 -9.490209 0.034400 -1.197500 -3.292500 19.492728 14.974581 -24.568656 -3.660711 -13.909433 38.780925 2.612148 -15.493717 -9.438254 -0.347600 3.788300 -10.481900 0.349698 -0.568707 3.212726 0.188353 -0.001933 -4.895850 5.583884 -8.335943 18.300906 3.683000 -4.237500 9.976700 -85.197347 -2.777817 24.576355 22.593553 -28.409126 -4.847503 0.839337 0.841308 -5.498697 -7.125000 0.000000 0.000000 84.859116 -5.528541 20.806533 -18.257411 23.334268 -3.268113 -1.398601 0.411617 12.194786 7.125000 0.000000 0.000000 
-0.208819 17.491152 -0.994902 172.863735 53.019759 171.813686 -35.394871 -5.565361 5.292509 -0.422045 6.037413 20.842317 -0.808091 5.954483 -9.147669 0.060000 -1.581200 -4.349500 19.079652 15.029852 -24.658433 -3.215437 -13.389118 36.884796 2.785384 -16.150361 -8.913500 -0.326600 3.673100 -10.158700 0.309667 -0.688647 3.290493 0.265285 -0.062140 -4.792090 5.659861 -8.391718 18.241789 3.709100 -4.257500 9.984000 -85.130327 -2.911434 24.925313 22.945895 -28.848711 -5.017048 0.839046 0.834144 -5.780062 -7.125000 0.000000 0.000000 84.842907 -5.598342 20.871653 -18.315704 23.410389 -3.296222 -1.408653 0.429249 12.063555 7.125000 0.000000 0.000000 
-0.099948 17.495503 -1.068747 171.798788 52.626276 170.891496 -36.105338 -5.268867 6.461395 -0.577126 5.606292 19.725361 -0.848532 6.033107 -8.855418 0.088600 -1.920000 -5.284600 18.175011 15.086527 -24.658223 -2.808660 -12.866210 35.069002 2.910292 -16.590755 -8.500312 -0.269500 3.339300 -9.224800 0.141707 -0.810350 3.334147 0.448692 -0.102110 -4.794716 5.703229 -8.460128 18.111774 3.710700 -4.281800 9.930800 -85.068253 -2.969022 25.259388 23.250257 -29.223267 -5.166559 0.850965 0.832923 -5.951762 -7.125000 0.000000 0.000000 84.936364 -5.705414 20.714899 -18.321255 23.403124 -3.285500 -1.397291 0.396798 12.157328 7.125000 0.000000 0.000000 
0.008812 17.502865 -1.137349 171.533732 52.361398 170.751267 -36.195072 -4.938063 7.510135 -0.754716 5.100468 18.416465 -0.917788 6.187476 -8.425955 0.094600 -1.984000 -5.461400 17.767472 15.343226 -24.724421 -2.420824 -12.364663 33.333567 2.983812 -16.847052 -8.455929 -0.190100 2.807600 -7.743600 0.075478 -0.867222 3.309894 0.467118 -0.126019 -4.858322 5.782075 -8.532657 17.953018 3.731100 -4.307000 9.857100 -84.984563 -3.012945 25.558616 23.502870 -29.531214 -5.291124 0.855724 0.820892 -6.141073 -7.125000 0.000000 0.000000 85.159518 -5.790806 20.282042 -18.278823 23.320952 -3.242052 -1.373415 0.290694 12.507107 7.125000 0.000000 0.000000 
0.118911 17.515470 -1.207960 171.648736 52.150763 170.937395 -36.010700 -4.571982 8.606908 -0.942334 4.534175 16.966713 -1.008212 6.408682 -7.918793 0.107700 -2.116200 -5.826900 17.522412 15.760281 -24.783651 -2.060858 -11.885626 31.705814 2.988353 -16.830556 -8.736893 -0.084800 1.878800 -5.170700 0.082026 -0.900813 3.313073 0.443460 -0.151308 -4.840786 5.816969 -8.596473 17.856539 3.729600 -4.329400 9.826500 -84.899355 -3.091279 25.899451 23.761273 -29.844857 -5.421031 0.850493 0.817773 -6.451593 -7.125000 0.000000 0.000000 85.276852 -5.906399 20.166029 -18.343118 23.377760 -3.246875 -1.360427 0.205549 12.477612 7.125000 0.000000 0.000000 
0.229567 17.525063 -1.281247 171.310094 51.826117 170.618060 -36.108401 -3.989392 9.828941 -1.113042 3.956278 15.503477 -1.069290 6.486664 -7.279438 0.124700 -2.276500 -6.270500 16.956914 16.175944 -24.661056 -1.734389 -11.403551 30.138205 3.031120 -16.964347 -9.007526 -0.042300 1.327500 -3.650400 0.044660 -0.968790 3.355447 0.543751 -0.182225 -4.854129 5.821099 -8.646886 17.757851 3.716500 -4.348500 9.788200 -84.880063 -3.167516 26.321095 23.978125 -30.106443 -5.534762 0.850083 0.829615 -6.847772 -7.125000 0.000000 0.000000 85.343063 -6.021620 19.993730 -18.407331 23.448070 -3.262811 -1.354112 0.186829 12.398718 7.125000 0.000000 0.000000 
0.342566 17.533094 -1.353977 170.835654 51.389214 170.216892 -36.227307 -3.339180 11.099924 -1.289781 3.308308 13.860025 -1.095490 6.377637 -6.420664 0.101500 -2.054400 -5.656100 16.313653 16.490674 -24.568051 -1.452411 -10.949538 28.683013 3.141642 -17.370249 -8.953152 -0.060600 1.588500 -4.369700 -0.037856 -1.068544 3.421448 0.633264 -0.227283 -4.794753 5.916309 -8.734176 17.671832 3.743400 -4.379600 9.771900 -84.820984 -3.247593 26.680087 24.216161 -30.391775 -5.658107 0.851698 0.830713 -7.050108 -7.125000 0.000000 0.000000 85.436583 -6.046632 19.739631 -18.408418 23.450055 -3.262580 -1.353018 0.185449 12.447945 7.125000 0.000000 0.000000 
0.462146 17.542576 -1.429272 170.673696 51.016432 170.158357 -36.143119 -2.861799 12.470879 -1.481214 2.576483 12.008930 -1.162106 6.454974 -5.576625 0.080800 -1.833800 -5.046500 15.877687 16.860023 -24.524092 -1.203734 -10.543913 27.391550 3.204046 -17.596285 -9.164737 -0.060200 1.582900 -4.354400 -0.063507 -1.204517 3.437038 0.713259 -0.298586 -4.708200 5.982797 -8.777724 17.604667 3.767800 -4.395300 9.747100 -84.823797 -3.240637 26.679326 24.372326 -30.580032 -5.736845 0.853386 0.820653 -6.950884 -7.125000 0.000000 0.000000 85.420610 -6.208566 19.971485 -18.443756 23.488145 -3.278215 -1.362284 0.179905 12.254050 7.125000 0.000000 0.000000 
0.581614 17.546257 -1.504679 170.378261 50.615355 170.043958 -36.168525 -2.447584 13.867753 -1.663330 1.823326 10.104972 -1.240987 6.619370 -4.784591 0.104800 -2.087000 -5.746100 15.333137 17.129208 -24.613829 -0.983747 -10.173852 26.217055 3.266332 -17.827582 -9.477936 -0.064400 1.637000 -4.503400 -0.106919 -1.376720 3.395114 0.827488 -0.381989 -4.687418 5.982891 -8.800340 17.511348 3.761400 -4.404700 9.691400 -84.854777 -3.189862 26.622400 24.427625 -30.648203 -5.764114 0.852947 0.805798 -6.924623 -7.125000 0.000000 0.000000 85.430791 -6.484116 20.097591 -18.500796 23.550765 -3.296893 -1.361504 0.190894 12.163431 7.125000 0.000000 0.000000 
0.702310 17.545811 -1.576516 169.976241 50.204738 169.870994 -36.229826 -2.015646 15.357129 -1.845460 0.984410 7.981485 -1.352808 6.927869 -3.826859 0.156800 -2.551800 -7.033200 14.734652 17.372660 -24.780212 -0.796685 -9.843136 25.159754 3.368044 -18.217906 -9.587308 -0.098800 2.026700 -5.579500 -0.196207 -1.489361 3.369999 0.883282 -0.433958 -4.645878 6.005008 -8.878909 17.449825 3.751000 -4.434300 9.677800 -84.848222 -3.207691 26.710738 24.431548 -30.653265 -5.766763 0.861437 0.797268 -6.811210 -7.125000 0.000000 0.000000 85.583851 -6.626734 19.924665 -18.474870 23.514676 -3.286912 -1.361813 0.177985 12.188143 7.125000 0.000000 0.000000 
0.831148 17.548934 -1.649915 169.826648 49.882499 169.844609 -36.001551 -1.346072 17.401626 -2.069659 -0.255282 4.859130 -1.536693 7.527109 -2.338615 0.137300 -2.388400 -6.580300 14.406631 17.639102 -24.796828 -0.642573 -9.557219 24.270673 3.390587 -18.289549 -9.724285 -0.121000 2.242900 -6.177300 -0.238428 -1.522914 3.390124 0.910900 -0.456181 -4.554608 5.963622 -8.988986 17.414682 3.697000 -4.477300 9.683000 -84.869559 -3.295044 26.746007 24.379326 -30.593441 -5.741010 0.864144 0.794914 -6.551269 -7.125000 0.000000 0.000000 85.750111 -6.720016 19.747747 -18.451034 23.481399 -3.279761 -1.367470 0.152438 12.228478 7.125000 0.000000 0.000000 
0.963222 17.549715 -1.726214 169.709805 49.561841 169.833907 -35.813514 -0.818486 19.051040 -2.196096 -1.174290 2.573719 -1.644812 7.904126 -1.209005 0.166200 -2.626200 -7.239800 14.132224 17.875338 -24.808962 -0.526546 -9.339074 23.603459 3.369453 -18.194296 -9.994605 -0.115000 2.186200 -6.020500 -0.258727 -1.575018 3.403169 0.974812 -0.486867 -4.453565 5.929274 -9.085160 17.286159 3.652900 -4.516500 9.621500 -84.879626 -3.328603 26.765618 24.299488 -30.501324 -5.701054 0.859374 0.788641 -6.439352 -7.125000 0.000000 0.000000 85.895040 -6.836842 19.423410 -18.420126 23.445271 -3.271359 -1.370089 0.164072 12.370135 7.125000 0.000000 0.000000 
